<?xml version="1.0" encoding="UTF-8"?>
<svg width="327px" height="210px" viewBox="0 0 327 210" version="1.1" xmlns="http://www.w3.org/2000/svg" xmlns:xlink="http://www.w3.org/1999/xlink">
    <title>Rectangle Copy 3</title>
    <g id="Page-1" stroke="none" stroke-width="1" fill="none" fill-rule="evenodd">
        <g id="Artboard" transform="translate(-82.000000, -415.000000)" fill="#D8D8D8">
            <path d="M135.242142,420.159437 C171.994761,416.719812 208.747381,415 245.5,415 C282.252619,415 319.005239,416.719812 355.757858,420.159437 L355.757884,420.159166 C382.192621,422.631765 403.257772,443.327095 406.198148,469.713895 C408.066042,486.475932 409,503.237966 409,520 C409,536.762034 408.066042,553.524068 406.198125,570.286102 L406.198148,570.286105 C403.257772,596.672905 382.192621,617.368235 355.757884,619.840834 C319.005239,623.280188 282.252619,625 245.5,625 C208.747381,625 171.994761,623.280188 135.242142,619.840563 L135.242116,619.840834 C108.807379,617.368235 87.7422282,596.672905 84.801852,570.286105 C82.9339583,553.524068 82,536.762034 82,520 C82,503.237966 82.9339583,486.475932 84.8018749,469.713898 L84.801852,469.713895 C87.7422282,443.327095 108.807379,422.631765 135.242116,420.159166 Z" id="Rectangle-Copy-3"></path>
        </g>
    </g>

  <image href="./mapa.png" height="200" width="200" />
</svg>
